<svg width="32" height="32" viewBox="0 0 32 32" fill="none" xmlns="http://www.w3.org/2000/svg">
<mask id="mask0_561_7415" style="mask-type:luminance" maskUnits="userSpaceOnUse" x="4" y="4" width="24" height="24">
<path d="M28 3.99998H4.00002V28H28V3.99998Z" fill="white"/>
</mask>
<g mask="url(#mask0_561_7415)">
<mask id="mask1_561_7415" style="mask-type:luminance" maskUnits="userSpaceOnUse" x="4" y="4" width="24" height="24">
<path d="M28 3.99998H4.00002V28H28V3.99998Z" fill="white"/>
</mask>
<g mask="url(#mask1_561_7415)">
<path d="M22.9622 3.99998H9.03975C6.25629 3.99998 4.00186 6.25614 4.00186 9.03788V22.9621C4.00186 25.7456 6.25802 28.0017 9.03975 28.0017H22.964C25.7474 28.0017 28.0019 25.7456 28.0019 22.9621V9.03961C28.0019 6.25614 25.7457 4.00171 22.964 4.00171" fill="white"/>
<path d="M22.2653 9.74498V11.9545C22.2653 12.1896 22.1063 12.3832 21.8798 12.4334L16.5809 13.5416C16.1607 13.6263 16.0518 14.1709 16.3959 14.4146L22.8704 19.0756C23.2058 19.3194 23.1056 19.8398 22.7027 19.9487L11.8957 22.7201C11.8196 22.7373 11.7366 22.7529 11.6519 22.7529H11.517C10.6941 22.7529 10.3743 21.6862 11.0554 21.2332L14.7586 18.7558C15.0785 18.5449 15.0353 18.0591 14.6826 17.9L9.13986 15.4053C8.92202 15.305 8.8131 15.0699 8.86324 14.8434L10.1391 9.62915C10.1893 9.41131 10.3915 9.25917 10.618 9.25917H21.7709C22.0389 9.25917 22.2584 9.47701 22.2584 9.74671H22.2671L22.2653 9.74498Z" fill="#1C3547"/>
</g>
</g>
</svg>
