<svg  viewBox="0 0 192 32" fill="none" xmlns="http://www.w3.org/2000/svg">
<g clip-path="url(#clip0_4521_8129)">
<mask id="mask0_4521_8129" style="mask-type:luminance" maskUnits="userSpaceOnUse" x="0" y="0" width="192" height="32">
<path d="M192 0.239746H0.481842V31.758H192V0.239746Z" fill="white"/>
</mask>
<g mask="url(#mask0_4521_8129)">
<mask id="mask1_4521_8129" style="mask-type:luminance" maskUnits="userSpaceOnUse" x="0" y="0" width="192" height="32">
<path d="M192 0.239746H0.481842V31.758H192V0.239746Z" fill="white"/>
</mask>
<g mask="url(#mask1_4521_8129)">
<path d="M25.2983 0.234741H7.07317C3.42994 0.234741 0.479156 3.1926 0.479156 6.8395V25.0944C0.479156 28.7435 3.43221 31.7014 7.07317 31.7014H25.2983C28.9416 31.7014 31.8924 28.7435 31.8924 25.0944V6.84177C31.8924 3.1926 28.9393 0.237008 25.2983 0.237008" fill="#1C3547"/>
<path d="M57.2207 15.4632C56.3711 14.9433 55.2951 14.5051 54.0912 14.1463L50.352 13.0906C49.5024 12.8635 48.859 12.5389 48.4264 12.1483C47.9937 11.7578 47.7696 11.222 47.7696 10.5545C47.8099 8.65185 49.4957 8.00705 51.3496 8.00251C53.4344 7.96618 55.2637 9.09686 55.6044 11.1085H59.7942C59.579 6.613 55.5977 4.12232 51.3518 4.21541C47.5185 4.13594 43.378 6.38368 43.4228 10.5726C43.3937 14.4801 45.7341 16.1466 49.202 17.1887L52.9412 18.2445C53.8088 18.5033 54.4836 18.862 54.979 19.3343C55.461 19.8065 55.7008 20.4241 55.7008 21.1711C55.6672 24.1068 51.39 24.7516 49.2334 23.5437C47.8144 22.8103 46.8348 21.4276 46.7294 19.8043H42.553C42.6875 22.9375 44.3621 25.5598 47.0948 26.8926C49.6123 28.1822 53.5263 28.155 56.0505 27.0379C58.5209 25.9753 60.0722 23.7957 60.0475 21.0712C60.07 18.6236 59.171 16.6393 57.223 15.4632" fill="#1C3547"/>
<path d="M84.5833 11.4468H84.5811C84.5811 11.4468 84.5677 11.4377 84.5587 11.4331L84.552 11.4309C83.6754 10.9722 82.6599 10.7497 81.5032 10.7497C79.2278 10.6998 77.0511 11.9553 76.0468 13.8875C75.1882 11.6783 73.2985 10.7384 70.8931 10.7497C68.7701 10.7361 67.1001 11.7805 66.1271 13.6105V11.0086H62.1301V27.6872H66.1271V19.2344C66.1451 17.4861 66.5038 15.8696 67.7815 14.8297C68.8979 13.8966 71.0253 13.9692 71.9377 15.0568C72.4668 15.6425 72.7246 16.4554 72.7246 17.4793V27.6713H76.7216V19.1867C76.7216 17.6587 77.0265 16.4554 77.6519 15.5449C78.2773 14.6345 79.1606 14.1781 80.2994 14.1781C81.2476 14.1781 81.9852 14.471 82.5142 15.0568C83.0433 15.6425 83.3011 16.4554 83.3011 17.4793V27.6713H87.2981V16.3577C87.3003 14.2825 86.3924 12.4117 84.5833 11.449" fill="#1C3547"/>
<path d="M101.793 12.8953H101.777C101.295 12.2618 100.621 11.7419 99.7868 11.3332C97.693 10.3274 94.7384 10.6475 92.8845 11.8054C91.7121 12.5206 90.8154 13.5287 90.172 14.8297C88.3651 18.6281 89.013 24.5994 92.8688 26.8585C95.3504 28.4092 100.033 28.4796 101.793 25.7051V27.6736H105.79V10.9949H101.793V12.8975V12.8953ZM101.504 22.0156C100.798 23.5618 99.3698 24.445 97.6683 24.4223C95.94 24.4291 94.5837 23.5641 93.8484 21.9997C92.4048 18.8801 93.7117 14.1826 97.6683 14.2462C99.3788 14.2416 100.782 15.0885 101.504 16.6506C102.224 18.1309 102.237 20.5353 101.504 22.0156Z" fill="#1C3547"/>
<path d="M121.998 6.08618H118.019V10.9949H113.477C112.354 10.9949 111.374 11.2378 110.522 11.7101C109.673 12.1823 109.014 12.8476 108.547 13.7103C108.081 14.5708 107.841 15.563 107.841 16.7028V27.6758H111.614V17.1909C111.614 16.2646 111.807 15.5494 112.19 15.0454C112.495 14.6548 112.865 14.3619 113.459 14.3619H118.001V22.3925C118.001 24.1975 118.53 25.562 119.575 26.5043C120.619 27.4465 122.029 27.9188 123.811 27.9188C124.549 27.9188 125.224 27.837 125.833 27.6917V24.1793C125.289 24.3246 124.757 24.4064 124.278 24.4064C123.603 24.4064 123.058 24.1952 122.623 23.7729C122.206 23.3506 121.998 22.749 121.998 21.9679V14.3597H125.833V10.9949H121.998V6.08845V6.08618Z" fill="#1C3547"/>
<path d="M139.802 11.4831C137.011 9.99826 133.115 10.7838 131.424 13.581V11.0131H127.427V27.6918H131.424V20.3606C131.445 18.2559 131.81 16.276 133.303 15.0455C134.498 14.0805 136.771 14.0737 137.813 15.2725C138.392 15.8901 138.681 16.7029 138.681 17.6769V27.6737H142.644V16.7506C142.649 14.5051 141.723 12.5184 139.802 11.4854" fill="#1C3547"/>
<path d="M156.911 11.903V11.8872C155.707 11.122 154.245 10.7338 152.528 10.7338C147.61 10.6452 144.406 14.564 144.471 19.316C144.411 24.0431 147.85 28.055 152.721 27.9324C156.355 28.005 159.924 26.0343 160.426 22.2109H156.462C156.032 23.8274 154.508 24.5358 152.851 24.5358C150.331 24.5608 148.753 22.8239 148.471 20.3582H160.459C160.838 17.0774 159.778 13.7035 156.911 11.9053M148.612 17.2863C148.959 15.227 150.412 13.8057 152.512 13.8397C154.644 13.8034 156.009 15.2065 156.205 17.2863H148.612Z" fill="#1C3547"/>
<path d="M190.362 19.1844C189.512 18.4397 188.29 17.9016 186.701 17.5792L184.134 17.0275C183.556 16.914 183.123 16.7346 182.818 16.4758C182.128 15.9218 182.231 14.8593 182.962 14.3938C183.868 13.7604 185.551 13.8648 186.477 14.5232C187.04 14.882 187.358 15.3837 187.439 16.0353H191.339C191.111 13.8693 189.75 12.2346 187.824 11.3696C185.103 10.1821 180.933 10.5273 179.158 13.1087C177.898 14.798 178.29 17.72 179.736 18.9438C180.619 19.7225 181.792 20.2765 183.251 20.6012L185.82 21.1529C186.795 21.3505 187.573 21.7659 187.602 22.7604C187.562 24.0409 186.152 24.5064 184.905 24.4996C183.975 24.4996 183.188 24.2407 182.563 23.7026C182.036 23.2508 181.704 22.7513 181.594 22.2064H177.671C177.848 24.4133 179.171 26.275 181.2 27.1809C184.152 28.5432 188.831 28.1504 190.797 25.3124C192.137 23.605 191.826 20.415 190.364 19.1822" fill="#1C3547"/>
<path d="M174.836 19.1845C173.986 18.4398 172.749 17.9017 171.175 17.5793L168.608 17.0275C168.03 16.914 167.597 16.7347 167.29 16.4758C166.599 15.9218 166.703 14.8593 167.433 14.3938C168.339 13.7604 170.023 13.8648 170.948 14.5232C171.511 14.882 171.832 15.3837 171.91 16.0354H175.811C175.582 13.8694 174.221 12.2346 172.296 11.3696C169.574 10.1776 165.407 10.5364 163.629 13.1088C162.369 14.798 162.762 17.72 164.208 18.9438C165.089 19.7226 166.263 20.2766 167.723 20.6012L170.289 21.1529C171.265 21.3505 172.042 21.766 172.072 22.7604C172.031 24.0409 170.621 24.5064 169.375 24.4996C168.444 24.4996 167.658 24.2407 167.032 23.7026C166.505 23.2508 166.174 22.7513 166.064 22.2064H162.141C162.318 24.4133 163.64 26.2751 165.669 27.181C168.621 28.5432 173.302 28.1504 175.268 25.3124C176.609 23.605 176.297 20.415 174.836 19.1822" fill="#1C3547"/>
<path d="M24.3151 7.78472V10.6863C24.3151 10.9951 24.1088 11.2494 23.8152 11.3153L16.9442 12.7706C16.3995 12.8819 16.2583 13.5971 16.7044 13.9172L25.0997 20.0383C25.5346 20.3584 25.4046 21.0418 24.8822 21.1849L10.8691 24.8244C10.7705 24.8471 10.6629 24.8675 10.5531 24.8675H10.3782C9.31114 24.8675 8.89642 23.4667 9.77966 22.8718L14.5815 19.6183C14.9962 19.3413 14.9401 18.7033 14.4828 18.4944L7.29582 15.2182C7.01336 15.0865 6.87213 14.7777 6.93714 14.4803L8.59154 7.6326C8.65655 7.34653 8.91884 7.14673 9.2125 7.14673H23.6739C24.0214 7.14673 24.3061 7.4328 24.3061 7.78699H24.3173L24.3151 7.78472Z" fill="#FEFEFE"/>
</g>
</g>
</g>
<defs>
</defs>
</svg>
