<svg width="32" height="32" viewBox="0 0 32 32" fill="none" xmlns="http://www.w3.org/2000/svg">
<g clip-path="url(#clip0_4286_11221)">
<mask id="mask0_4286_11221" style="mask-type:luminance" maskUnits="userSpaceOnUse" x="0" y="0" width="32" height="32">
<path d="M32 0H0V32H32V0Z" fill="white"/>
</mask>
<g mask="url(#mask0_4286_11221)">
<mask id="mask1_4286_11221" style="mask-type:luminance" maskUnits="userSpaceOnUse" x="0" y="0" width="32" height="32">
<path d="M32 0H0V32H32V0Z" fill="white"/>
</mask>
<g mask="url(#mask1_4286_11221)">
<path d="M25.2827 0H6.71938C3.0081 0 0.00219727 3.00821 0.00219727 6.71718V25.2828C0.00219727 28.9941 3.01041 32.0023 6.71938 32.0023H25.285C28.9963 32.0023 32.0022 28.9941 32.0022 25.2828V6.71949C32.0022 3.00821 28.994 0.00230519 25.285 0.00230519" fill="#1C3547"/>
<path d="M24.3538 7.65995V10.6059C24.3538 10.9194 24.1417 11.1776 23.8398 11.2444L16.7745 12.722C16.2143 12.835 16.0691 13.5611 16.5278 13.8861L25.1606 20.1008C25.6078 20.4258 25.4741 21.1197 24.937 21.2649L10.5276 24.96C10.4261 24.9831 10.3155 25.0038 10.2025 25.0038H10.0227C8.92548 25.0038 8.49903 23.5816 9.40726 22.9776L14.3449 19.6744C14.7713 19.3931 14.7137 18.7454 14.2434 18.5333L6.85316 15.207C6.56271 15.0733 6.41749 14.7598 6.48434 14.4578L8.18553 7.50551C8.25238 7.21506 8.52208 7.01221 8.82406 7.01221H23.6945C24.0518 7.01221 24.3446 7.30265 24.3446 7.66226H24.3561L24.3538 7.65995Z" fill="#FEFEFE"/>
</g>
</g>
</g>
</svg>
